<mxfile host="app.diagrams.net" modified="2023-04-18T10:18:38.750Z" agent="Mozilla/5.0 (Macintosh; Intel Mac OS X 10_15_7) AppleWebKit/537.36 (KHTML, like Gecko) Chrome/112.0.0.0 Safari/537.36" version="21.1.8" etag="YBUaBT7VCDWQqqdYkB6u" type="github">
  <diagram name="PÃ¡gina-1" id="jWEhTHAYosUpWfs6-m_m">
    <mxGraphModel>
      <root>
        <mxCell id="0" />
        <mxCell id="1" parent="0" />
      </root>
    </mxGraphModel>
  </diagram>
</mxfile>
